<?xml version="1.0" encoding="UTF-8" standalone="no"?>
<!-- Created with Inkscape (http://www.inkscape.org/) -->

<svg
   xmlns:ns0="http://www.iki.fi/pav/software/textext/"
   xmlns:dc="http://purl.org/dc/elements/1.1/"
   xmlns:cc="http://creativecommons.org/ns#"
   xmlns:rdf="http://www.w3.org/1999/02/22-rdf-syntax-ns#"
   xmlns:svg="http://www.w3.org/2000/svg"
   xmlns="http://www.w3.org/2000/svg"
   xmlns:sodipodi="http://sodipodi.sourceforge.net/DTD/sodipodi-0.dtd"
   xmlns:inkscape="http://www.inkscape.org/namespaces/inkscape"
   width="157.95444mm"
   height="112.50215mm"
   viewBox="0 0 157.95444 112.50215"
   version="1.1"
   id="svg35473"
   inkscape:version="0.92.3 (2405546, 2018-03-11)"
   sodipodi:docname="inkscape.svg">
  <sodipodi:namedview
     id="base"
     pagecolor="#ffffff"
     bordercolor="#666666"
     borderopacity="1.0"
     inkscape:pageopacity="0.0"
     inkscape:pageshadow="2"
     inkscape:zoom="0.5"
     inkscape:cx="446.25308"
     inkscape:cy="182.45737"
     inkscape:document-units="mm"
     inkscape:current-layer="layer1"
     showgrid="false"
     inkscape:window-width="1920"
     inkscape:window-height="1017"
     inkscape:window-x="1912"
     inkscape:window-y="-8"
     inkscape:window-maximized="1" />
  <defs
     id="defs35467">
    <inkscape:path-effect
       effect="bspline"
       id="path-effect42231"
       is_visible="true"
       weight="33.333333"
       steps="2"
       helper_size="0"
       apply_no_weight="true"
       apply_with_weight="true"
       only_selected="false" />
    <inkscape:path-effect
       only_selected="false"
       apply_with_weight="true"
       apply_no_weight="true"
       helper_size="0"
       steps="2"
       weight="33.333333"
       is_visible="true"
       id="path-effect42227"
       effect="bspline" />
    <inkscape:path-effect
       simplifyJustCoalesce="false"
       simplifyindividualpaths="false"
       simplify_just_coalesce="false"
       simplify_individual_paths="false"
       helper_size="0"
       smooth_angles="360"
       threshold="0.000408163"
       steps="1"
       is_visible="true"
       id="path-effect36050"
       effect="simplify" />
    <inkscape:path-effect
       effect="simplify"
       id="path-effect36046"
       is_visible="true"
       steps="1"
       threshold="0.000408163"
       smooth_angles="360"
       helper_size="0"
       simplify_individual_paths="false"
       simplify_just_coalesce="false"
       simplifyindividualpaths="false"
       simplifyJustCoalesce="false" />
    <inkscape:path-effect
       simplifyJustCoalesce="false"
       simplifyindividualpaths="false"
       simplify_just_coalesce="false"
       simplify_individual_paths="false"
       helper_size="0"
       smooth_angles="360"
       threshold="0.000408163"
       steps="1"
       is_visible="true"
       id="path-effect36042"
       effect="simplify" />
    <inkscape:path-effect
       effect="simplify"
       id="path-effect36038"
       is_visible="true"
       steps="1"
       threshold="0.000408163"
       smooth_angles="360"
       helper_size="0"
       simplify_individual_paths="false"
       simplify_just_coalesce="false"
       simplifyindividualpaths="false"
       simplifyJustCoalesce="false" />
    <inkscape:path-effect
       effect="simplify"
       id="path-effect36034"
       is_visible="true"
       steps="1"
       threshold="0.000408163"
       smooth_angles="360"
       helper_size="0"
       simplify_individual_paths="false"
       simplify_just_coalesce="false"
       simplifyindividualpaths="false"
       simplifyJustCoalesce="false" />
    <inkscape:path-effect
       simplifyJustCoalesce="false"
       simplifyindividualpaths="false"
       simplify_just_coalesce="false"
       simplify_individual_paths="false"
       helper_size="0"
       smooth_angles="360"
       threshold="0.000408163"
       steps="1"
       is_visible="true"
       id="path-effect36030"
       effect="simplify" />
    <inkscape:path-effect
       only_selected="false"
       apply_with_weight="true"
       apply_no_weight="true"
       helper_size="0"
       steps="2"
       weight="33.333333"
       is_visible="true"
       id="path-effect25382"
       effect="bspline" />
    <inkscape:path-effect
       effect="bspline"
       id="path-effect25378"
       is_visible="true"
       weight="33.333333"
       steps="2"
       helper_size="0"
       apply_no_weight="true"
       apply_with_weight="true"
       only_selected="false" />
  </defs>
  <metadata
     id="metadata35470">
    <rdf:RDF>
      <cc:Work
         rdf:about="">
        <dc:format>image/svg+xml</dc:format>
        <dc:type
           rdf:resource="http://purl.org/dc/dcmitype/StillImage" />
        <dc:title />
      </cc:Work>
    </rdf:RDF>
  </metadata>
  <g
     id="layer1"
     inkscape:groupmode="layer"
     inkscape:label="Layer 1"
     transform="translate(-24.008065,-97.492447)">
    <circle
       r="5"
       cy="136.39394"
       cx="29.611565"
       id="path36018"
       style="opacity:1;fill:#7c7bc6;fill-opacity:1;stroke:#000000;stroke-width:1.2069999;stroke-linecap:round;stroke-linejoin:round;stroke-miterlimit:4;stroke-dasharray:none;stroke-dashoffset:0;stroke-opacity:1" />
    <circle
       r="5"
       style="opacity:1;fill:#447b80;fill-opacity:1;stroke:#000000;stroke-width:1.2069999;stroke-linecap:round;stroke-linejoin:round;stroke-miterlimit:4;stroke-dasharray:none;stroke-dashoffset:0;stroke-opacity:1"
       id="circle36020"
       cx="29.800552"
       cy="204.3911" />
    <circle
       r="5"
       cy="103.09595"
       cx="101.42879"
       id="circle36022"
       style="opacity:1;fill:#7c5780;fill-opacity:1;stroke:#000000;stroke-width:1.2069999;stroke-linecap:round;stroke-linejoin:round;stroke-miterlimit:4;stroke-dasharray:none;stroke-dashoffset:0;stroke-opacity:1" />
    <circle
       r="5"
       style="opacity:1;fill:#7c7b26;fill-opacity:1;stroke:#000000;stroke-width:1.2069999;stroke-linecap:round;stroke-linejoin:round;stroke-miterlimit:4;stroke-dasharray:none;stroke-dashoffset:0;stroke-opacity:1"
       id="circle36024"
       cx="143.81393"
       cy="139.82449" />
    <circle
       r="5"
       cy="173.20074"
       cx="98.756088"
       id="circle36026"
       style="opacity:1;fill:#a17b80;fill-opacity:1;stroke:#000000;stroke-width:1.2069999;stroke-linecap:round;stroke-linejoin:round;stroke-miterlimit:4;stroke-dasharray:none;stroke-dashoffset:0;stroke-opacity:1" />
    <path
       sodipodi:nodetypes="cc"
       inkscape:original-d="M 30.201456,199.17935 29.399648,140.91459"
       inkscape:path-effect="#path-effect36030"
       inkscape:connector-curvature="0"
       id="path36028"
       d="M 30.201456,199.17935 C 29.934187,179.75776 29.666917,160.33618 29.399648,140.91459"
       style="fill:none;stroke:#000000;stroke-width:0.76499999;stroke-linecap:butt;stroke-linejoin:miter;stroke-miterlimit:4;stroke-dasharray:none;stroke-opacity:1" />
    <path
       style="fill:none;stroke:#000000;stroke-width:0.76499999;stroke-linecap:butt;stroke-linejoin:miter;stroke-miterlimit:4;stroke-dasharray:none;stroke-opacity:1"
       d="M 33.67596,133.96559 C 54.612073,124.70024 75.548187,115.4349 96.4843,106.16955"
       id="path36036"
       inkscape:connector-curvature="0"
       inkscape:path-effect="#path-effect36038"
       inkscape:original-d="M 33.67596,133.96559 96.4843,106.16955"
       sodipodi:nodetypes="cc" />
    <path
       sodipodi:nodetypes="cc"
       inkscape:original-d="m 98.889725,167.16047 2.138155,-58.31822"
       inkscape:path-effect="#path-effect36042"
       inkscape:connector-curvature="0"
       id="path36040"
       d="m 98.889725,167.16047 c 0.712718,-19.43941 1.425435,-38.87881 2.138155,-58.31822"
       style="fill:none;stroke:#000000;stroke-width:0.76499999;stroke-linecap:butt;stroke-linejoin:miter;stroke-miterlimit:4;stroke-dasharray:none;stroke-opacity:1" />
    <path
       style="fill:none;stroke:#000000;stroke-width:0.76499999;stroke-linecap:butt;stroke-linejoin:miter;stroke-miterlimit:4;stroke-dasharray:none;stroke-opacity:1"
       d="M 35.012308,205.32655 C 54.558619,195.6603 74.10493,185.99405 93.651241,176.3278"
       id="path36044"
       inkscape:connector-curvature="0"
       inkscape:path-effect="#path-effect36046"
       inkscape:original-d="M 35.012308,205.32655 93.651241,176.3278"
       sodipodi:nodetypes="cc" />
    <path
       sodipodi:nodetypes="cc"
       inkscape:original-d="m 102.36423,169.32534 37.15046,-25.92515"
       inkscape:path-effect="#path-effect36050"
       inkscape:connector-curvature="0"
       id="path36048"
       d="m 102.36423,169.32534 c 12.38349,-8.64172 24.76697,-17.28343 37.15046,-25.92515"
       style="fill:none;stroke:#000000;stroke-width:0.76499999;stroke-linecap:butt;stroke-linejoin:miter;stroke-miterlimit:4;stroke-dasharray:none;stroke-opacity:1" />
    <path
       style="fill:none;stroke:#000000;stroke-width:0.56642741;stroke-linecap:butt;stroke-linejoin:miter;stroke-miterlimit:4;stroke-dasharray:none;stroke-opacity:1"
       d="m 144.2951,132.00616 c 0,0 0,0 0,0 -0.21687,-1.62851 -0.43371,-3.25683 -2.56298,-4.06336 -2.12928,-0.80653 -6.67708,-0.78894 -8.40431,-1.60413 -1.72724,-0.81519 -1.62182,-2.92961 -1.52812,-4.80885"
       id="path25376"
       inkscape:connector-curvature="0"
       inkscape:path-effect="#path-effect25378"
       inkscape:original-d="m 144.2951,132.00616 v 0 c 0,0 -0.43347,-3.25686 -0.6506,-4.88552 -4.04172,0 -8.58942,0.0427 -12.1259,0.0469 0.0831,-1.644 0.28109,-5.63772 0.28109,-5.63772"
       sodipodi:nodetypes="ccccc" />
    <path
       sodipodi:nodetypes="ccccc"
       inkscape:original-d="m 144.2951,132.00616 v 0 c 0,0 0.60563,-3.25686 0.908,-4.88552 3.95853,0 8.41186,0.0427 11.87511,0.0469 -0.0815,-1.644 -0.28107,-5.63772 -0.28107,-5.63772"
       inkscape:path-effect="#path-effect25382"
       inkscape:connector-curvature="0"
       id="path25380"
       d="m 144.2951,132.00616 c 0,0 0,0 0,0 0.30267,-1.62851 0.60532,-3.25692 2.73589,-4.0634 2.13058,-0.80649 6.58401,-0.7889 8.27463,-1.60405 1.69063,-0.81515 1.58521,-2.92965 1.49152,-4.80889"
       style="fill:none;stroke:#000000;stroke-width:0.56642741;stroke-linecap:butt;stroke-linejoin:miter;stroke-miterlimit:4;stroke-dasharray:none;stroke-opacity:1" />
    <path
       sodipodi:nodetypes="ccccc"
       inkscape:original-d="m 99.213788,180.5004 v 0 c 0,0 0.43347,3.25686 0.6506,4.88552 4.041722,0 8.589422,-0.0427 12.125902,-0.0469 -0.0831,1.644 -0.28109,5.63772 -0.28109,5.63772"
       inkscape:path-effect="#path-effect42227"
       inkscape:connector-curvature="0"
       id="path42225"
       d="m 99.213788,180.5004 c 0,0 0,0 0,0 0.216867,1.62851 0.433709,3.25683 2.562982,4.06336 2.12928,0.80653 6.67708,0.78894 8.40431,1.60413 1.72724,0.81519 1.62182,2.92961 1.52812,4.80885"
       style="fill:none;stroke:#000000;stroke-width:0.56642741;stroke-linecap:butt;stroke-linejoin:miter;stroke-miterlimit:4;stroke-dasharray:none;stroke-opacity:1" />
    <path
       style="fill:none;stroke:#000000;stroke-width:0.56642741;stroke-linecap:butt;stroke-linejoin:miter;stroke-miterlimit:4;stroke-dasharray:none;stroke-opacity:1"
       d="m 99.213788,180.5004 c 0,0 0,0 0,0 -0.302667,1.62851 -0.605316,3.25692 -2.735892,4.0634 -2.130576,0.80649 -6.584005,0.7889 -8.274631,1.60405 -1.690626,0.81515 -1.585207,2.92965 -1.491517,4.80889"
       id="path42229"
       inkscape:connector-curvature="0"
       inkscape:path-effect="#path-effect42231"
       inkscape:original-d="m 99.213788,180.5004 v 0 c 0,0 -0.60563,3.25686 -0.908,4.88552 -3.95853,0 -8.41186,-0.0427 -11.87511,-0.0469 0.0815,1.644 0.28107,5.63772 0.28107,5.63772"
       sodipodi:nodetypes="ccccc" />
    <g
       style="font-style:normal;font-variant:normal;font-weight:normal;font-stretch:normal;letter-spacing:normal;word-spacing:normal;text-anchor:start;fill:none;fill-opacity:1;fill-rule:evenodd;stroke:#000000;stroke-linecap:butt;stroke-linejoin:miter;stroke-miterlimit:10.43299961;stroke-dasharray:none;stroke-dashoffset:0;stroke-opacity:1"
       ns0:jacobian_sqrt="1.70593"
       inkscapeversion="0.92.3"
       ns0:alignment="middle center"
       ns0:scale="4.83570609135"
       ns0:preamble="C:\\Users\\myersau3.EGR\\AppData\\Roaming\\inkscape\\extensions\\textext\\default_packages.tex"
       ns0:text="$\\dot{x}_i$"
       ns0:pdfconverter="pstoedit"
       ns0:texconverter="pdflatex"
       ns0:version="0.9.0"
       word-spacing="normal"
       letter-spacing="normal"
       font-size-adjust="none"
       font-stretch="normal"
       font-weight="normal"
       font-variant="normal"
       font-style="normal"
       stroke-miterlimit="10.433"
       xml:space="preserve"
       transform="matrix(1.70593,0,0,-1.70593,-161.72235,1322.4375)"
       id="content">
<path
   id="path42281"
   style="fill:#000000;fill-opacity:1;stroke:#000000;stroke-width:0;stroke-opacity:1"
   d="m 152.37,663.35 v 0.03 l -0.01,0.02 v 0.03 0.02 l -0.01,0.03 -0.01,0.02 v 0.03 l -0.01,0.02 -0.01,0.02 -0.02,0.02 -0.01,0.03 -0.01,0.02 -0.02,0.02 -0.01,0.02 -0.02,0.02 -0.02,0.02 -0.01,0.02 -0.02,0.01 -0.02,0.02 -0.02,0.01 -0.02,0.02 -0.03,0.01 -0.02,0.02 -0.02,0.01 -0.03,0.01 -0.02,0.01 h -0.03 l -0.02,0.01 h -0.03 l -0.03,0.01 h -0.02 -0.03 c -0.34,0 -0.54,-0.28 -0.54,-0.53 0,-0.26 0.23,-0.52 0.53,-0.52 0.34,0 0.54,0.28 0.54,0.52 z"
   inkscape:connector-curvature="0" />
<path
   id="path42283"
   style="fill:#000000;fill-opacity:1;stroke:#000000;stroke-width:0;stroke-opacity:1"
   d="m 152.04,660.23 0.01,0.03 0.01,0.03 v 0.03 l 0.01,0.04 0.01,0.04 0.02,0.04 0.01,0.04 0.01,0.05 0.02,0.04 0.02,0.05 0.02,0.05 0.02,0.05 0.02,0.05 0.02,0.05 0.03,0.05 0.03,0.05 0.03,0.05 0.03,0.04 0.03,0.05 0.04,0.04 0.03,0.05 0.04,0.04 0.05,0.04 0.04,0.03 0.05,0.03 0.04,0.03 0.03,0.01 0.03,0.02 0.02,0.01 0.03,0.01 0.03,0.01 h 0.03 l 0.02,0.01 0.03,0.01 h 0.03 0.04 l 0.03,0.01 h 0.03 c 0.05,0 0.29,0 0.5,-0.13 -0.28,-0.05 -0.48,-0.3 -0.48,-0.54 0,-0.16 0.11,-0.35 0.38,-0.35 0.22,0 0.54,0.18 0.54,0.58 0,0.52 -0.59,0.66 -0.93,0.66 -0.58,0 -0.93,-0.53 -1.05,-0.76 -0.25,0.66 -0.78,0.76 -1.07,0.76 -1.04,0 -1.61,-1.29 -1.61,-1.53 0,-0.1 0.1,-0.1 0.12,-0.1 0.08,0 0.11,0.02 0.13,0.11 0.34,1.05 1,1.3 1.34,1.3 0.19,0 0.53,-0.09 0.53,-0.67 0,-0.31 -0.17,-0.97 -0.53,-2.36 -0.16,-0.62 -0.51,-1.04 -0.95,-1.04 -0.06,0 -0.29,0 -0.5,0.13 0.25,0.05 0.47,0.26 0.47,0.54 0,0.27 -0.22,0.35 -0.37,0.35 -0.3,0 -0.55,-0.26 -0.55,-0.58 0,-0.46 0.5,-0.65 0.94,-0.65 0.66,0 1.02,0.69 1.05,0.75 0.11,-0.37 0.47,-0.75 1.07,-0.75 1.03,0 1.6,1.28 1.6,1.53 0,0.1 -0.09,0.1 -0.12,0.1 -0.09,0 -0.11,-0.04 -0.13,-0.11 -0.33,-1.07 -1.01,-1.31 -1.33,-1.31 -0.39,0 -0.55,0.32 -0.55,0.66 0,0.22 0.06,0.44 0.17,0.87 z"
   inkscape:connector-curvature="0" />
<path
   id="path42285"
   style="fill:#000000;fill-opacity:1;stroke:#000000;stroke-width:0;stroke-opacity:1"
   d="m 156.67,660.09 v 0.01 0.01 0.01 0.01 l -0.01,0.01 v 0.01 0.01 l -0.01,0.02 v 0.01 0.01 l -0.01,0.01 -0.01,0.01 v 0.01 l -0.01,0.01 -0.01,0.01 -0.01,0.01 v 0.01 l -0.01,0.01 -0.01,0.01 -0.01,0.01 h -0.02 l -0.01,0.01 -0.01,0.01 -0.01,0.01 h -0.02 l -0.01,0.01 h -0.01 -0.02 l -0.02,0.01 h -0.01 -0.02 -0.02 c -0.19,0 -0.39,-0.18 -0.39,-0.38 0,-0.12 0.09,-0.26 0.28,-0.26 0.2,0 0.39,0.19 0.39,0.38 z"
   inkscape:connector-curvature="0" />
<path
   id="path42287"
   style="fill:#000000;fill-opacity:1;stroke:#000000;stroke-width:0;stroke-opacity:1"
   d="m 155.24,656.55 v -0.01 l -0.01,-0.02 -0.01,-0.03 v -0.02 l -0.01,-0.02 v -0.01 l -0.01,-0.02 v -0.02 l -0.01,-0.02 v -0.02 -0.01 -0.01 -0.01 l -0.01,-0.01 v -0.01 -0.02 -0.01 -0.01 -0.01 c 0,-0.32 0.28,-0.59 0.67,-0.59 0.69,0 1,0.96 1,1.06 0,0.1 -0.09,0.1 -0.11,0.1 -0.1,0 -0.1,-0.05 -0.13,-0.12 -0.16,-0.56 -0.47,-0.84 -0.74,-0.84 -0.14,0 -0.18,0.09 -0.18,0.24 0,0.16 0.05,0.29 0.11,0.44 0.07,0.19 0.15,0.38 0.23,0.56 0.06,0.17 0.31,0.8 0.34,0.88 0.02,0.07 0.04,0.16 0.04,0.23 0,0.32 -0.28,0.59 -0.66,0.59 -0.69,0 -1.01,-0.95 -1.01,-1.07 0,-0.09 0.09,-0.09 0.11,-0.09 0.1,0 0.11,0.04 0.13,0.11 0.18,0.6 0.49,0.85 0.75,0.85 0.11,0 0.17,-0.05 0.17,-0.24 0,-0.16 -0.04,-0.27 -0.21,-0.7 z"
   inkscape:connector-curvature="0" />
</g>    <g
       id="g42374"
       transform="matrix(1.70593,0,0,-1.70593,-116.79717,1238.967)"
       xml:space="preserve"
       stroke-miterlimit="10.433"
       font-style="normal"
       font-variant="normal"
       font-weight="normal"
       font-stretch="normal"
       font-size-adjust="none"
       letter-spacing="normal"
       word-spacing="normal"
       ns0:version="0.9.0"
       ns0:texconverter="pdflatex"
       ns0:pdfconverter="pstoedit"
       ns0:text="$\\dot{x}_j$"
       ns0:preamble="C:\\Users\\myersau3.EGR\\AppData\\Roaming\\inkscape\\extensions\\textext\\default_packages.tex"
       ns0:scale="4.83570609135"
       ns0:alignment="middle center"
       inkscapeversion="0.92.3"
       ns0:jacobian_sqrt="1.70593"
       style="font-style:normal;font-variant:normal;font-weight:normal;font-stretch:normal;letter-spacing:normal;word-spacing:normal;text-anchor:start;fill:none;fill-opacity:1;fill-rule:evenodd;stroke:#000000;stroke-linecap:butt;stroke-linejoin:miter;stroke-miterlimit:10.43299961;stroke-dasharray:none;stroke-dashoffset:0;stroke-opacity:1">
<path
   d="m 152.37,663.35 v 0.03 l -0.01,0.02 v 0.03 0.02 l -0.01,0.03 -0.01,0.02 v 0.03 l -0.01,0.02 -0.01,0.02 -0.02,0.02 -0.01,0.03 -0.01,0.02 -0.02,0.02 -0.01,0.02 -0.02,0.02 -0.02,0.02 -0.01,0.02 -0.02,0.01 -0.02,0.02 -0.02,0.01 -0.02,0.02 -0.03,0.01 -0.02,0.02 -0.02,0.01 -0.03,0.01 -0.02,0.01 h -0.03 l -0.02,0.01 h -0.03 l -0.03,0.01 h -0.02 -0.03 c -0.34,0 -0.54,-0.28 -0.54,-0.53 0,-0.26 0.23,-0.52 0.53,-0.52 0.34,0 0.54,0.28 0.54,0.52 z"
   style="fill:#000000;fill-opacity:1;stroke:#000000;stroke-width:0;stroke-opacity:1"
   id="path42366"
   inkscape:connector-curvature="0" />
<path
   d="m 152.04,660.23 0.01,0.03 0.01,0.03 v 0.03 l 0.01,0.04 0.01,0.04 0.02,0.04 0.01,0.04 0.01,0.05 0.02,0.04 0.02,0.05 0.02,0.05 0.02,0.05 0.02,0.05 0.02,0.05 0.03,0.05 0.03,0.05 0.03,0.05 0.03,0.04 0.03,0.05 0.04,0.04 0.03,0.05 0.04,0.04 0.05,0.04 0.04,0.03 0.05,0.03 0.04,0.03 0.03,0.01 0.03,0.02 0.02,0.01 0.03,0.01 0.03,0.01 h 0.03 l 0.02,0.01 0.03,0.01 h 0.03 0.04 l 0.03,0.01 h 0.03 c 0.05,0 0.29,0 0.5,-0.13 -0.28,-0.05 -0.48,-0.3 -0.48,-0.54 0,-0.16 0.11,-0.35 0.38,-0.35 0.22,0 0.54,0.18 0.54,0.58 0,0.52 -0.59,0.66 -0.93,0.66 -0.58,0 -0.93,-0.53 -1.05,-0.76 -0.25,0.66 -0.78,0.76 -1.07,0.76 -1.04,0 -1.61,-1.29 -1.61,-1.53 0,-0.1 0.1,-0.1 0.12,-0.1 0.08,0 0.11,0.02 0.13,0.11 0.34,1.05 1,1.3 1.34,1.3 0.19,0 0.53,-0.09 0.53,-0.67 0,-0.31 -0.17,-0.97 -0.53,-2.36 -0.16,-0.62 -0.51,-1.04 -0.95,-1.04 -0.06,0 -0.29,0 -0.5,0.13 0.25,0.05 0.47,0.26 0.47,0.54 0,0.27 -0.22,0.35 -0.37,0.35 -0.3,0 -0.55,-0.26 -0.55,-0.58 0,-0.46 0.5,-0.65 0.94,-0.65 0.66,0 1.02,0.69 1.05,0.75 0.11,-0.37 0.47,-0.75 1.07,-0.75 1.03,0 1.6,1.28 1.6,1.53 0,0.1 -0.09,0.1 -0.12,0.1 -0.09,0 -0.11,-0.04 -0.13,-0.11 -0.33,-1.07 -1.01,-1.31 -1.33,-1.31 -0.39,0 -0.55,0.32 -0.55,0.66 0,0.22 0.06,0.44 0.17,0.87 z"
   style="fill:#000000;fill-opacity:1;stroke:#000000;stroke-width:0;stroke-opacity:1"
   id="path42368"
   inkscape:connector-curvature="0" />
<path
   d="m 157.48,660.09 -0.01,0.01 v 0.01 0.01 0.01 0.01 0.02 l -0.01,0.01 v 0.01 l -0.01,0.01 v 0.01 l -0.01,0.01 v 0.01 l -0.01,0.01 -0.01,0.01 -0.01,0.01 v 0.01 l -0.01,0.01 -0.01,0.01 -0.01,0.01 -0.01,0.01 -0.01,0.01 h -0.02 l -0.01,0.01 -0.01,0.01 h -0.01 l -0.02,0.01 h -0.01 -0.02 l -0.01,0.01 h -0.02 -0.02 -0.01 c -0.21,0 -0.4,-0.19 -0.4,-0.38 0,-0.11 0.09,-0.26 0.28,-0.26 0.19,0 0.4,0.18 0.4,0.38 z"
   style="fill:#000000;fill-opacity:1;stroke:#000000;stroke-width:0;stroke-opacity:1"
   id="path42370"
   inkscape:connector-curvature="0" />
<path
   d="m 155.99,655.4 -0.01,-0.04 -0.01,-0.05 -0.02,-0.04 -0.01,-0.05 -0.02,-0.04 -0.02,-0.04 -0.02,-0.04 -0.02,-0.04 -0.02,-0.04 -0.03,-0.04 -0.02,-0.03 -0.03,-0.04 -0.02,-0.04 -0.03,-0.03 -0.03,-0.03 -0.03,-0.03 -0.03,-0.03 -0.03,-0.03 -0.03,-0.03 -0.03,-0.02 -0.04,-0.02 -0.03,-0.02 -0.04,-0.02 -0.03,-0.02 -0.04,-0.02 -0.03,-0.01 -0.04,-0.01 -0.04,-0.01 -0.03,-0.01 -0.04,-0.01 h -0.04 -0.04 c -0.09,0 -0.17,0.01 -0.25,0.04 0.18,0.08 0.24,0.25 0.24,0.35 0,0.17 -0.14,0.26 -0.28,0.26 -0.21,0 -0.39,-0.19 -0.39,-0.41 0,-0.26 0.27,-0.44 0.69,-0.44 0.42,0 1.24,0.25 1.45,1.1 l 0.63,2.49 c 0.02,0.08 0.04,0.14 0.04,0.24 0,0.39 -0.33,0.66 -0.75,0.66 -0.78,0 -1.23,-0.97 -1.23,-1.07 0,-0.09 0.1,-0.09 0.12,-0.09 0.09,0 0.1,0.02 0.14,0.13 0.18,0.4 0.54,0.83 0.95,0.83 0.17,0 0.23,-0.12 0.23,-0.34 0,-0.07 -0.01,-0.17 -0.02,-0.21 z"
   style="fill:#000000;fill-opacity:1;stroke:#000000;stroke-width:0;stroke-opacity:1"
   id="path42372"
   inkscape:connector-curvature="0" />
</g>    <g
       style="font-style:normal;font-variant:normal;font-weight:normal;font-stretch:normal;letter-spacing:normal;word-spacing:normal;text-anchor:start;fill:none;fill-opacity:1;fill-rule:evenodd;stroke:#000000;stroke-linecap:butt;stroke-linejoin:miter;stroke-miterlimit:10.43299961;stroke-dasharray:none;stroke-dashoffset:0;stroke-opacity:1"
       ns0:jacobian_sqrt="1.70593"
       inkscapeversion="0.92.3"
       ns0:alignment="middle center"
       ns0:scale="4.83570609135"
       ns0:preamble="C:\\Users\\myersau3.EGR\\AppData\\Roaming\\inkscape\\extensions\\textext\\default_packages.tex"
       ns0:text="$w(\\dot{x}_i,\\dot{x}_j)$"
       ns0:pdfconverter="pstoedit"
       ns0:texconverter="pdflatex"
       ns0:version="0.9.0"
       word-spacing="normal"
       letter-spacing="normal"
       font-size-adjust="none"
       font-stretch="normal"
       font-weight="normal"
       font-variant="normal"
       font-style="normal"
       stroke-miterlimit="10.433"
       xml:space="preserve"
       transform="matrix(1.70593,0,0,-1.70593,-135.68166,1291.6602)"
       id="g42486">
<path
   id="path42462"
   style="fill:#000000;fill-opacity:1;stroke:#000000;stroke-width:0;stroke-opacity:1"
   d="m 153.32,660.6 v 0.02 l 0.01,0.03 v 0.02 l 0.01,0.02 0.01,0.02 v 0.03 l 0.01,0.05 0.02,0.05 0.01,0.05 0.01,0.05 0.01,0.05 0.01,0.02 v 0.02 l 0.01,0.02 v 0.03 l 0.01,0.02 v 0.02 l 0.01,0.02 v 0.01 l 0.01,0.02 v 0.02 0.01 0.01 l 0.01,0.01 v 0.01 0.01 0.01 c 0,0.18 -0.14,0.27 -0.29,0.27 -0.12,0 -0.3,-0.08 -0.37,-0.28 -0.03,-0.07 -0.5,-1.97 -0.57,-2.23 -0.07,-0.29 -0.09,-0.47 -0.09,-0.65 0,-0.11 0,-0.13 0.01,-0.18 -0.23,-0.53 -0.53,-0.84 -0.92,-0.84 -0.79,0 -0.79,0.74 -0.79,0.91 0,0.32 0.05,0.7 0.52,1.92 0.1,0.3 0.16,0.44 0.16,0.64 0,0.45 -0.32,0.82 -0.81,0.82 -0.95,0 -1.32,-1.45 -1.32,-1.53 0,-0.1 0.1,-0.1 0.12,-0.1 0.1,0 0.11,0.02 0.16,0.17 0.27,0.93 0.66,1.24 1.01,1.24 0.09,0 0.25,-0.01 0.25,-0.33 0,-0.25 -0.11,-0.53 -0.18,-0.7 -0.44,-1.17 -0.56,-1.62 -0.56,-2 0,-0.91 0.67,-1.25 1.41,-1.25 0.17,0 0.64,0 1.04,0.69 0.26,-0.64 0.95,-0.69 1.25,-0.69 0.75,0 1.18,0.62 1.45,1.22 0.33,0.77 0.65,2.1 0.65,2.58 0,0.55 -0.27,0.7 -0.44,0.7 -0.25,0 -0.5,-0.26 -0.5,-0.48 0,-0.13 0.07,-0.19 0.16,-0.27 0.11,-0.11 0.35,-0.37 0.35,-0.84 0,-0.34 -0.29,-1.32 -0.54,-1.82 -0.26,-0.53 -0.61,-0.88 -1.1,-0.88 -0.47,0 -0.74,0.3 -0.74,0.87 0,0.28 0.07,0.58 0.11,0.72 z"
   inkscape:connector-curvature="0" />
<path
   id="path42464"
   style="fill:#000000;fill-opacity:1;stroke:#000000;stroke-width:0;stroke-opacity:1"
   d="m 159.41,654.85 v 0.01 0 0 0.01 0 0 0.01 0 0 0.01 h -0.01 v 0.01 0 l -0.01,0.01 v 0 l -0.01,0.01 v 0.01 h -0.01 v 0.01 0 l -0.01,0.01 v 0 h -0.01 v 0.01 0 l -0.01,0.01 v 0 l -0.01,0.01 v 0 l -0.01,0.01 v 0 l -0.01,0.01 v 0.01 h -0.01 l -0.01,0.01 v 0.01 h -0.01 l -0.01,0.01 v 0.01 h -0.01 l -0.01,0.01 -0.01,0.01 c -1.24,1.25 -1.56,3.13 -1.56,4.65 0,1.73 0.38,3.45 1.6,4.7 0.13,0.12 0.13,0.14 0.13,0.17 0,0.07 -0.04,0.09 -0.1,0.09 -0.1,0 -0.99,-0.67 -1.58,-1.93 -0.51,-1.09 -0.63,-2.2 -0.63,-3.03 0,-0.78 0.11,-1.98 0.66,-3.1 0.6,-1.22 1.45,-1.87 1.55,-1.87 0.06,0 0.1,0.03 0.1,0.1 z"
   inkscape:connector-curvature="0" />
<path
   id="path42466"
   style="fill:#000000;fill-opacity:1;stroke:#000000;stroke-width:0;stroke-opacity:1"
   d="m 163.65,663.35 v 0.03 l -0.01,0.02 v 0.03 0.02 l -0.01,0.03 -0.01,0.02 -0.01,0.03 v 0.02 l -0.02,0.02 -0.01,0.02 -0.01,0.03 -0.01,0.02 -0.02,0.02 -0.01,0.02 -0.02,0.02 -0.02,0.02 -0.01,0.02 -0.02,0.01 -0.02,0.02 -0.02,0.01 -0.03,0.02 -0.02,0.01 -0.02,0.02 -0.02,0.01 -0.03,0.01 -0.02,0.01 h -0.03 l -0.02,0.01 h -0.03 l -0.03,0.01 h -0.03 -0.02 c -0.34,0 -0.54,-0.28 -0.54,-0.53 0,-0.26 0.23,-0.52 0.53,-0.52 0.34,0 0.54,0.28 0.54,0.52 z"
   inkscape:connector-curvature="0" />
<path
   id="path42468"
   style="fill:#000000;fill-opacity:1;stroke:#000000;stroke-width:0;stroke-opacity:1"
   d="m 163.32,660.23 v 0.03 l 0.01,0.03 0.01,0.03 0.01,0.04 0.01,0.04 0.01,0.04 0.01,0.04 0.02,0.05 0.01,0.04 0.02,0.05 0.02,0.05 0.02,0.05 0.02,0.05 0.03,0.05 0.02,0.05 0.03,0.05 0.03,0.05 0.03,0.04 0.04,0.05 0.03,0.04 0.04,0.05 0.04,0.04 0.04,0.04 0.04,0.03 0.05,0.03 0.05,0.03 0.03,0.01 0.02,0.02 0.03,0.01 0.02,0.01 0.03,0.01 h 0.03 l 0.03,0.01 0.03,0.01 h 0.03 0.03 l 0.03,0.01 h 0.03 c 0.05,0 0.29,0 0.5,-0.13 -0.28,-0.05 -0.48,-0.3 -0.48,-0.54 0,-0.16 0.11,-0.35 0.38,-0.35 0.22,0 0.54,0.18 0.54,0.58 0,0.52 -0.59,0.66 -0.92,0.66 -0.58,0 -0.93,-0.53 -1.05,-0.76 -0.25,0.66 -0.79,0.76 -1.08,0.76 -1.04,0 -1.6,-1.29 -1.6,-1.53 0,-0.1 0.09,-0.1 0.12,-0.1 0.08,0 0.11,0.02 0.13,0.11 0.33,1.05 0.99,1.3 1.33,1.3 0.19,0 0.54,-0.09 0.54,-0.67 0,-0.31 -0.17,-0.97 -0.54,-2.36 -0.16,-0.62 -0.51,-1.04 -0.95,-1.04 -0.06,0 -0.29,0 -0.49,0.13 0.24,0.05 0.46,0.26 0.46,0.54 0,0.27 -0.22,0.35 -0.37,0.35 -0.3,0 -0.54,-0.26 -0.54,-0.58 0,-0.46 0.49,-0.65 0.93,-0.65 0.66,0 1.02,0.69 1.05,0.75 0.12,-0.37 0.48,-0.75 1.08,-0.75 1.03,0 1.59,1.28 1.59,1.53 0,0.1 -0.09,0.1 -0.12,0.1 -0.09,0 -0.11,-0.04 -0.13,-0.11 -0.33,-1.07 -1,-1.31 -1.32,-1.31 -0.39,0 -0.55,0.32 -0.55,0.66 0,0.22 0.06,0.44 0.17,0.87 z"
   inkscape:connector-curvature="0" />
<path
   id="path42470"
   style="fill:#000000;fill-opacity:1;stroke:#000000;stroke-width:0;stroke-opacity:1"
   d="m 167.95,660.09 v 0.01 0.01 l -0.01,0.01 v 0.01 0.01 0.01 l -0.01,0.01 v 0.02 0.01 l -0.01,0.01 v 0.01 l -0.01,0.01 -0.01,0.01 v 0.01 l -0.01,0.01 -0.01,0.01 -0.01,0.01 -0.01,0.01 -0.01,0.01 -0.01,0.01 h -0.01 l -0.01,0.01 -0.01,0.01 -0.02,0.01 h -0.01 l -0.01,0.01 h -0.02 -0.02 l -0.01,0.01 h -0.02 -0.02 -0.01 c -0.19,0 -0.4,-0.18 -0.4,-0.38 0,-0.12 0.1,-0.26 0.28,-0.26 0.21,0 0.4,0.19 0.4,0.38 z"
   inkscape:connector-curvature="0" />
<path
   id="path42472"
   style="fill:#000000;fill-opacity:1;stroke:#000000;stroke-width:0;stroke-opacity:1"
   d="m 166.52,656.55 -0.01,-0.01 v -0.02 l -0.01,-0.03 -0.01,-0.02 v -0.02 l -0.01,-0.01 v -0.02 l -0.01,-0.02 v -0.02 -0.02 l -0.01,-0.01 v -0.01 -0.01 -0.01 -0.01 -0.02 -0.01 -0.01 -0.01 c 0,-0.32 0.28,-0.59 0.66,-0.59 0.7,0 1.01,0.96 1.01,1.06 0,0.1 -0.09,0.1 -0.11,0.1 -0.1,0 -0.11,-0.05 -0.14,-0.12 -0.16,-0.56 -0.47,-0.84 -0.74,-0.84 -0.14,0 -0.17,0.09 -0.17,0.24 0,0.16 0.05,0.29 0.11,0.44 0.07,0.19 0.15,0.38 0.22,0.56 0.07,0.17 0.32,0.8 0.35,0.88 0.02,0.07 0.04,0.16 0.04,0.23 0,0.32 -0.28,0.59 -0.67,0.59 -0.69,0 -1.01,-0.95 -1.01,-1.07 0,-0.09 0.1,-0.09 0.12,-0.09 0.1,0 0.1,0.04 0.12,0.11 0.19,0.6 0.49,0.85 0.75,0.85 0.11,0 0.18,-0.05 0.18,-0.24 0,-0.16 -0.05,-0.27 -0.22,-0.7 z"
   inkscape:connector-curvature="0" />
<path
   id="path42474"
   style="fill:#000000;fill-opacity:1;stroke:#000000;stroke-width:0;stroke-opacity:1"
   d="m 171.02,657.24 v 0.07 0.05 0.06 l -0.01,0.06 -0.01,0.05 v 0.05 l -0.01,0.06 -0.01,0.04 -0.01,0.05 -0.02,0.05 -0.01,0.04 -0.02,0.04 -0.01,0.04 -0.02,0.04 -0.02,0.04 -0.02,0.03 -0.02,0.04 -0.02,0.03 -0.03,0.02 -0.02,0.03 -0.03,0.03 -0.03,0.02 -0.02,0.02 -0.03,0.02 -0.03,0.01 -0.03,0.02 -0.03,0.01 -0.04,0.01 -0.03,0.01 h -0.03 l -0.04,0.01 h -0.04 c -0.33,0 -0.52,-0.25 -0.52,-0.53 0,-0.27 0.19,-0.53 0.52,-0.53 0.12,0 0.25,0.05 0.35,0.13 0.03,0.02 0.04,0.03 0.05,0.03 0.01,0 0.02,-0.01 0.02,-0.15 0,-0.73 -0.35,-1.33 -0.67,-1.65 -0.12,-0.11 -0.12,-0.13 -0.12,-0.16 0,-0.07 0.06,-0.11 0.11,-0.11 0.11,0 0.9,0.76 0.9,1.92 z"
   inkscape:connector-curvature="0" />
<path
   id="path42476"
   style="fill:#000000;fill-opacity:1;stroke:#000000;stroke-width:0;stroke-opacity:1"
   d="m 177.08,663.35 v 0.03 0.02 0.03 l -0.01,0.02 -0.01,0.03 v 0.02 l -0.01,0.03 -0.01,0.02 -0.01,0.02 -0.01,0.02 -0.01,0.03 -0.02,0.02 -0.01,0.02 -0.02,0.02 -0.01,0.02 -0.02,0.02 -0.02,0.02 -0.02,0.01 -0.02,0.02 -0.02,0.01 -0.02,0.02 -0.02,0.01 -0.03,0.02 -0.02,0.01 -0.02,0.01 -0.03,0.01 h -0.02 l -0.03,0.01 h -0.03 l -0.02,0.01 h -0.03 -0.03 c -0.34,0 -0.54,-0.28 -0.54,-0.53 0,-0.26 0.23,-0.52 0.53,-0.52 0.34,0 0.54,0.28 0.54,0.52 z"
   inkscape:connector-curvature="0" />
<path
   id="path42478"
   style="fill:#000000;fill-opacity:1;stroke:#000000;stroke-width:0;stroke-opacity:1"
   d="m 176.76,660.23 v 0.03 l 0.01,0.03 0.01,0.03 0.01,0.04 0.01,0.04 0.01,0.04 0.01,0.04 0.02,0.05 0.01,0.04 0.02,0.05 0.02,0.05 0.02,0.05 0.02,0.05 0.03,0.05 0.02,0.05 0.03,0.05 0.03,0.05 0.03,0.04 0.04,0.05 0.03,0.04 0.04,0.05 0.04,0.04 0.04,0.04 0.04,0.03 0.05,0.03 0.05,0.03 0.02,0.01 0.03,0.02 0.03,0.01 0.02,0.01 0.03,0.01 h 0.03 l 0.03,0.01 0.03,0.01 h 0.03 0.03 l 0.03,0.01 h 0.03 c 0.05,0 0.29,0 0.5,-0.13 -0.28,-0.05 -0.48,-0.3 -0.48,-0.54 0,-0.16 0.11,-0.35 0.38,-0.35 0.22,0 0.54,0.18 0.54,0.58 0,0.52 -0.59,0.66 -0.93,0.66 -0.57,0 -0.92,-0.53 -1.04,-0.76 -0.25,0.66 -0.79,0.76 -1.08,0.76 -1.04,0 -1.61,-1.29 -1.61,-1.53 0,-0.1 0.1,-0.1 0.12,-0.1 0.08,0 0.11,0.02 0.13,0.11 0.34,1.05 1,1.3 1.34,1.3 0.19,0 0.54,-0.09 0.54,-0.67 0,-0.31 -0.17,-0.97 -0.54,-2.36 -0.16,-0.62 -0.51,-1.04 -0.95,-1.04 -0.06,0 -0.29,0 -0.5,0.13 0.25,0.05 0.47,0.26 0.47,0.54 0,0.27 -0.22,0.35 -0.37,0.35 -0.3,0 -0.55,-0.26 -0.55,-0.58 0,-0.46 0.5,-0.65 0.94,-0.65 0.66,0 1.02,0.69 1.05,0.75 0.12,-0.37 0.48,-0.75 1.08,-0.75 1.02,0 1.59,1.28 1.59,1.53 0,0.1 -0.09,0.1 -0.12,0.1 -0.09,0 -0.11,-0.04 -0.13,-0.11 -0.33,-1.07 -1,-1.31 -1.32,-1.31 -0.39,0 -0.55,0.32 -0.55,0.66 0,0.22 0.06,0.44 0.17,0.87 z"
   inkscape:connector-curvature="0" />
<path
   id="path42480"
   style="fill:#000000;fill-opacity:1;stroke:#000000;stroke-width:0;stroke-opacity:1"
   d="m 182.19,660.09 v 0.01 0.01 0.01 0.01 l -0.01,0.01 v 0.02 0.01 l -0.01,0.01 v 0.01 l -0.01,0.01 v 0.01 l -0.01,0.01 -0.01,0.01 v 0.01 l -0.01,0.01 -0.01,0.01 -0.01,0.01 -0.01,0.01 -0.01,0.01 -0.01,0.01 -0.01,0.01 h -0.01 l -0.01,0.01 -0.02,0.01 h -0.01 l -0.01,0.01 h -0.02 -0.01 l -0.02,0.01 h -0.02 -0.01 -0.02 c -0.2,0 -0.39,-0.19 -0.39,-0.38 0,-0.11 0.08,-0.26 0.28,-0.26 0.19,0 0.39,0.18 0.39,0.38 z"
   inkscape:connector-curvature="0" />
<path
   id="path42482"
   style="fill:#000000;fill-opacity:1;stroke:#000000;stroke-width:0;stroke-opacity:1"
   d="m 180.71,655.4 -0.01,-0.04 -0.02,-0.05 -0.01,-0.04 -0.02,-0.05 -0.02,-0.04 -0.02,-0.04 -0.01,-0.04 -0.03,-0.04 -0.02,-0.04 -0.02,-0.04 -0.03,-0.03 -0.02,-0.04 -0.03,-0.04 -0.03,-0.03 -0.02,-0.03 -0.03,-0.03 -0.03,-0.03 -0.04,-0.03 -0.03,-0.03 -0.03,-0.02 -0.03,-0.02 -0.04,-0.02 -0.03,-0.02 -0.04,-0.02 -0.03,-0.02 -0.04,-0.01 -0.04,-0.01 -0.03,-0.01 -0.04,-0.01 -0.04,-0.01 h -0.04 -0.04 c -0.09,0 -0.17,0.01 -0.25,0.04 0.19,0.08 0.24,0.25 0.24,0.35 0,0.17 -0.13,0.26 -0.27,0.26 -0.22,0 -0.4,-0.19 -0.4,-0.41 0,-0.26 0.27,-0.44 0.69,-0.44 0.42,0 1.24,0.25 1.46,1.1 l 0.63,2.49 c 0.02,0.08 0.03,0.14 0.03,0.24 0,0.39 -0.33,0.66 -0.75,0.66 -0.77,0 -1.22,-0.97 -1.22,-1.07 0,-0.09 0.1,-0.09 0.12,-0.09 0.08,0 0.09,0.02 0.14,0.13 0.17,0.4 0.54,0.83 0.94,0.83 0.18,0 0.24,-0.12 0.24,-0.34 0,-0.07 -0.02,-0.17 -0.02,-0.21 z"
   inkscape:connector-curvature="0" />
<path
   id="path42484"
   style="fill:#000000;fill-opacity:1;stroke:#000000;stroke-width:0;stroke-opacity:1"
   d="m 186.2,659.72 v 0.07 0.08 0.08 l -0.01,0.08 v 0.17 l -0.02,0.17 -0.01,0.18 -0.02,0.19 -0.03,0.2 -0.03,0.2 -0.04,0.2 -0.05,0.21 -0.05,0.21 -0.06,0.21 -0.07,0.21 -0.08,0.21 -0.05,0.11 -0.04,0.11 -0.05,0.1 -0.05,0.11 c -0.6,1.22 -1.45,1.86 -1.55,1.86 -0.06,0 -0.1,-0.03 -0.1,-0.09 0,-0.03 0,-0.05 0.19,-0.23 0.97,-0.99 1.54,-2.57 1.54,-4.64 0,-1.7 -0.37,-3.45 -1.6,-4.7 -0.13,-0.12 -0.13,-0.14 -0.13,-0.17 0,-0.06 0.04,-0.1 0.1,-0.1 0.1,0 0.99,0.68 1.58,1.94 0.51,1.09 0.63,2.19 0.63,3.03 z"
   inkscape:connector-curvature="0" />
</g>  </g>
</svg>
